# xmcd
#
# Track frame offsets:
#	150
#	22706
#	38719
#	55236
#	84598
#	107338
#	134348
#	154729
#	183761
#	208462
#	226242
#	242313
#	262756
#	294004
#	321552
#
# Disc length: 4639 seconds
#
# Revision: 4
# Processed by: cddbd v1.5.2PL0 Copyright (c) Steve Scherf et al.
# Submitted via: EZCDAudioConverter 1.3.4.1
#
DISCID=b8121d0f
DTITLE=V/A - Brand New Wayo
DYEAR=2011
DGENRE=
TTITLE0=Mixed Grill - A Brand New Wayo
TTITLE1=Kris Okotie - Show Me Your Backside
TTITLE2=Murphy Williams - Get On Up
TTITLE3=Joe Moks - Boys And Girls
TTITLE4=Amas - Slow Down
TTITLE5=Oby Onyioha - I Want To Feel Your Love
TTITLE6=Dizzy K. Falola - Excuse Me Baby
TTITLE7=Bayo Damazio - Listen To The Music
TTITLE8=Martha Ulaeto - Music Alone
TTITLE9=Segun Robert - Big Race
TTITLE10=Amel Addmore - Jane
TTITLE11=Chris Mba - Funky Situation
TTITLE12=Honey Machine - Pleasure
TTITLE13=The Stormmers - Love Or Money
TTITLE14=Emma Baloka - Let's Love Each Other
EXTD=
EXTT0=
EXTT1=
EXTT2=
EXTT3=
EXTT4=
EXTT5=
EXTT6=
EXTT7=
EXTT8=
EXTT9=
EXTT10=
EXTT11=
EXTT12=
EXTT13=
EXTT14=
PLAYORDER=
